<svg width="145" height="77" viewBox="0 0 145 77" fill="none" xmlns="http://www.w3.org/2000/svg">
<g clip-path="url(#clip0_2_2)">
<path fill-rule="evenodd" clip-rule="evenodd" d="M0.00341797 0.882085H24.226C30.8937 0.882085 32.0479 4.8371 33.0844 6.63817L52.5801 52.1208L65.7243 20.2234C78.1848 -7.97626 125.197 -7.6234 136.018 27.1631H144.876V36.6169H131.519L131.548 26.0383L129.027 27.5527C118.455 -0.786666 83.1837 1.13203 73.4799 20.0764C71.995 22.8626 70.7452 25.3032 69.7087 27.4939L51.8523 70.4036C49.3676 78.9311 34.0695 78.7914 30.6732 70.9843L0.00341797 0.874734L0.00341797 0.882085ZM10.604 7.09396H25.6007L49.0882 60.1485C48.5222 63.3316 46.9196 66.3383 45.3317 67.9335C42.0751 71.1975 37.6128 69.889 35.3192 65.1621L10.604 7.08661V7.09396Z" fill="#393185"/>
<path fill-rule="evenodd" clip-rule="evenodd" d="M70.1572 42.5642L63.6807 45.9899C74.2813 85.5621 128.916 85.1872 137.988 41.6379L130.894 40.7117C128.968 57.583 115.662 67.7057 101.988 68.5953C87.2711 69.5436 72.3552 59.8545 70.1572 42.5716V42.5642Z" fill="#393185"/>
<path fill-rule="evenodd" clip-rule="evenodd" d="M77.979 24.171C104.341 4.12396 126.424 28.3833 122.381 49.7242C140.421 20.0763 94.2034 -6.55017 77.979 24.171Z" fill="#EE1D26"/>
</g>
<defs>
<clipPath id="clip0_2_2">
<rect width="144.88" height="76.8287" fill="white"/>
</clipPath>
</defs>
</svg>
