<?xml version="1.0" encoding="UTF-8"?>
<!DOCTYPE svg PUBLIC "-//W3C//DTD SVG 1.0//EN" "http://www.w3.org/TR/2001/REC-SVG-20010904/DTD/svg10.dtd">
<!-- Creator: CorelDRAW 2021 (64-Bit) -->
<svg xmlns="http://www.w3.org/2000/svg" xml:space="preserve" width="418px" height="199px" version="1.0" style="shape-rendering:geometricPrecision; text-rendering:geometricPrecision; image-rendering:optimizeQuality; fill-rule:evenodd; clip-rule:evenodd"
viewBox="0 0 5475 2606"
 xmlns:xlink="http://www.w3.org/1999/xlink"
 xmlns:xodm="http://www.corel.com/coreldraw/odm/2003">
 <defs>
  <style type="text/css">
   <![CDATA[
    .fil8 {fill:none}
    .fil1 {fill:black}
    .fil7 {fill:#B5A275}
    .fil5 {fill:#C3A56B}
    .fil6 {fill:#C4A563}
    .fil2 {fill:#C5AB6B}
    .fil4 {fill:#CBAD73}
    .fil3 {fill:#CCAC6B}
    .fil0 {fill:#D4B065}
   ]]>
  </style>
   <clipPath id="id0">
    <path d="M0 0l5475 0 0 2606 -5475 0 0 -2606z"/>
   </clipPath>
 </defs>
 <g id="Layer_x0020_1">
  <metadata id="CorelCorpID_0Corel-Layer"/>
  <g>
  </g>
  <g style="clip-path:url(#id0)">
   <g>
    <g id="_2217657280064">
     <path class="fil0" d="M2779 1033l-346 0c-61,0 0,-85 19,-122l121 -245c16,-34 18,-44 39,-44 23,0 26,27 35,44l120 243c32,66 74,124 12,124zm-764 -281c0,77 2,132 20,207 26,101 68,198 129,282 6,9 8,15 19,18 6,-21 33,-30 45,-48 -26,-47 -50,-54 -95,-168 -90,-225 -46,-503 123,-677l76 -71c53,-45 114,-77 179,-103 21,-8 89,-29 114,-29 27,0 38,34 48,52 3,7 4,8 7,13l67 135c32,63 67,124 96,189l68 134c9,19 17,35 26,53 5,9 9,18 14,27l41 79c12,25 79,145 79,168 0,31 -87,20 -127,20 -16,0 -29,-5 -37,-14 -21,-25 -41,-77 -56,-106 -25,-51 -50,-107 -79,-157 -23,-38 -103,-220 -125,-238 -13,-11 -25,-12 -42,-12 -38,0 -68,78 -82,107l-160 315c-13,25 -60,105 -58,128 2,28 21,46 46,49 57,6 380,-2 480,0 34,1 41,20 52,44 22,43 40,83 62,126l48 97c6,13 9,18 15,32 28,67 41,59 108,27 119,-57 209,-191 266,-305 56,-112 79,-215 79,-357 0,-116 -52,-261 -114,-354 -33,-50 -69,-92 -111,-133 -66,-66 -148,-116 -236,-151 -24,-9 -156,-66 -156,-2 0,10 0,17 6,25 6,8 0,3 9,8 22,11 61,18 87,26 21,7 34,13 55,21 19,7 32,16 50,25 18,9 30,16 46,26 72,49 117,96 170,166l43 69c52,101 79,197 79,326 0,60 -14,130 -28,177 -29,95 -76,173 -139,248 -25,30 -105,106 -141,106 -17,0 -59,-94 -67,-112 -9,-21 -19,-39 -29,-59 -5,-10 -9,-19 -15,-30 -11,-19 -9,-11 -9,-39 25,-6 -1,-10 55,-10 27,0 107,5 128,-2 64,-22 1,-107 -24,-157 -39,-77 -75,-157 -117,-233l-87 -173c-63,-115 -147,-292 -206,-410 -10,-20 -18,-41 -44,-42 -4,0 -31,3 -39,4 -14,2 -28,1 -41,4 -50,11 -91,24 -133,42 -101,43 -184,107 -255,183 -6,6 -5,5 -9,11 -33,42 -56,68 -82,117 -6,11 -11,18 -16,29 -41,82 -76,182 -76,277z"/>
     <path class="fil1" d="M2526 2140c-44,0 -64,0 -100,-37 -51,-51 -51,-132 0,-183 86,-86 209,-9 209,83l0 17c0,54 -55,120 -109,120zm113 -411c0,57 -4,107 -4,161 -28,-20 -52,-55 -123,-55 -52,0 -90,24 -118,50 -15,13 -27,31 -36,49 -15,31 -21,65 -17,103 8,78 83,147 151,147 91,0 123,-16 174,-92 12,9 51,96 154,96 61,0 112,-31 138,-65 58,-77 37,-186 37,-281 -43,0 -44,-4 -47,9 -12,66 30,186 -39,254 -61,59 -158,40 -193,-32 -14,-28 -8,-26 -33,-26l0 -308c0,-16 -30,-16 -44,-10z"/>
     <path class="fil1" d="M1303 2140c-42,0 -73,-8 -99,-39 -39,-46 -50,-117 -10,-166 5,-6 8,-11 14,-17 117,-107 282,49 178,181 -16,20 -49,41 -83,41zm116 -250c-28,-19 -63,-55 -120,-55 -51,0 -92,19 -126,52 -16,16 -25,31 -36,53 -19,39 -20,99 -3,139 23,55 78,105 141,105l41 0c69,0 148,-82 148,-150l0 -305c-56,0 -45,-12 -45,75 0,29 0,57 0,86z"/>
     <path class="fil1" d="M3931 1883c56,0 119,47 119,103l-243 0c0,-57 65,-103 124,-103zm-175 123c0,100 78,178 168,178 69,0 108,-23 149,-76 39,-52 5,-43 -23,-43 -9,0 -14,13 -20,21 -50,70 -143,63 -191,15 -7,-7 -53,-74 -25,-74l284 0c0,-68 -3,-94 -52,-143 -109,-108 -290,-24 -290,122z"/>
     <path class="fil1" d="M1693 2136c-43,0 -74,0 -108,-42 -76,-90 -5,-214 91,-214 111,1 165,131 95,214 -15,19 -46,42 -78,42zm-188 -126c0,93 78,174 161,174 41,0 80,-4 112,-31 10,-9 12,-16 25,-20l0 41c60,0 44,18 44,-34 0,-51 5,-155 -7,-192 -18,-57 -86,-113 -154,-113 -41,0 -78,7 -110,33 -41,34 -71,76 -71,142z"/>
     <path class="fil1" d="M3084 2023c0,-52 9,-87 55,-120 6,-5 11,-7 20,-11 32,-13 68,-16 99,-1 118,56 86,245 -47,248 -13,1 -39,-5 -48,-9 -42,-15 -79,-68 -79,-107zm-48 -17c0,60 15,89 48,128 8,9 35,28 45,33 181,86 335,-145 199,-282 -85,-86 -225,-57 -276,48 -10,21 -16,43 -16,73z"/>
     <path class="fil1" d="M3420 1979l0 188c0,14 11,11 38,11 17,0 10,-57 10,-89 0,-62 -10,-138 25,-175 50,-53 165,-44 177,69 5,54 -8,97 0,195l45 0c0,-41 5,-76 3,-131 0,-18 -4,-25 -3,-48 0,-63 -13,-105 -65,-141 -52,-35 -134,-32 -185,19 -28,28 -45,54 -45,102z"/>
     <path class="fil1" d="M4153 1924c0,26 4,46 20,66 9,11 33,22 48,27 33,12 83,20 83,65 0,52 -61,77 -98,40 -13,-13 -14,-25 -19,-44 -7,-1 -47,-10 -47,4 0,53 45,102 99,102 31,0 56,-3 83,-29 53,-51 36,-137 -33,-165 -48,-20 -88,-17 -88,-66 0,-10 6,-21 11,-27 24,-26 82,-19 82,30l48 0c0,-96 -112,-112 -161,-67 -16,15 -28,34 -28,64z"/>
     <path class="fil1" d="M2026 2178l34 -1c1,0 2,0 3,0 10,-2 12,-4 15,-9l101 -238c7,-19 30,-71 32,-88l-48 0 -117 267c-1,-14 -44,-112 -52,-133l-54 -134 -48 0c1,14 24,69 31,85l103 251z"/>
     <path class="fil1" d="M2252 1893l0 233c0,23 3,30 3,52l45 0 0 -326c0,-15 -13,-10 -45,-10 0,22 -3,28 -3,51z"/>
     <path class="fil2" d="M1680 2380l24 0 0 127 -24 0c1,20 0,10 75,10l0 -10 -21 0c0,-7 0,-10 -1,-15l-2 -44 62 0c-7,17 -4,40 -4,59l-24 0c6,21 21,8 62,11 12,0 12,4 14,-11l-21 0 0 -127 21 0 0 -14c-14,0 -28,0 -42,0 -39,-1 -27,-2 -34,10 9,5 9,4 24,4 0,18 -2,39 4,55 -73,0 -62,12 -62,-55l24 0 0 -14 -75 0 0 14z"/>
     <path class="fil2" d="M1937 2373c5,8 -3,7 24,7l0 127 -24 0c4,18 -2,10 68,10 78,0 65,18 65,-52l-14 0c-1,46 -36,42 -65,42l0 -62c47,0 13,23 41,31 0,-39 10,-107 -13,-59 -7,14 -8,14 -28,14l0 -51c26,0 56,-7 59,31l10 0c3,-5 11,-45 -7,-45 -33,0 -114,-7 -116,7z"/>
     <path class="fil2" d="M3019 2369c8,15 1,11 24,11l0 127 -24 0c6,14 -2,-1 4,13 17,-9 110,1 130,-3 0,-10 0,-21 0,-31 0,-18 3,-19 -14,-21 0,48 -41,42 -65,42l0 -62c34,0 20,4 31,23 8,13 3,6 7,4 10,-4 4,10 5,-26 0,-11 0,-16 -1,-31 0,-6 5,-10 -5,-10 -19,-1 5,26 -37,26l0 -51c23,0 55,-7 58,31l14 0c0,-5 -2,-14 -2,-15l2 -30c-15,0 -121,-3 -127,3z"/>
     <path class="fil3" d="M3656 2435c0,-80 83,-75 83,-11 0,25 5,101 -52,83 -28,-8 -31,-39 -31,-72zm-30 0l0 17c0,40 38,71 75,70 40,-2 72,-37 72,-84 0,-54 -72,-106 -123,-54 -11,12 -24,28 -24,51z"/>
     <path class="fil2" d="M1450 2404c0,13 -1,1 3,10 17,-4 7,-4 16,-19 10,-17 18,-15 32,-15l0 127c-23,0 -16,-5 -24,10 16,0 33,-1 49,0 18,1 25,9 27,-10l-21 0 0 -107c0,-10 -9,-20 7,-20 20,0 29,16 31,34l10 0c0,-12 0,-21 2,-32 0,-7 4,-16 -9,-16l-123 0 0 38z"/>
     <path class="fil2" d="M3379 2380c25,0 18,-6 41,37 25,47 21,27 21,90l-21 0 0 10c22,0 56,-4 72,3l0 -13 -21 0 0 -52c0,-20 29,-52 35,-75l24 0 0 -14 -52 0 0 14 14 0c-5,21 -19,29 -24,51l-7 0c-2,-11 -19,-36 -27,-51 16,-1 11,1 17,-11 -12,-6 -56,-3 -72,-3l0 14z"/>
     <path class="fil3" d="M2307 2414l10 0c10,-43 41,-40 41,-24 0,125 9,117 -24,117 2,19 -3,10 75,10l0 -10 -24 0 0 -127c51,0 21,31 52,34l0 -48 -130 0 0 48z"/>
     <path class="fil4" d="M2536 2373c18,0 20,4 37,4 16,-1 26,-9 38,3l2 3c0,0 1,1 1,2l7 22c-1,10 -4,19 -13,24 -1,1 -3,0 -3,1 -3,5 -5,0 -21,6 14,0 21,-2 31,7 8,14 8,0 10,24 4,36 12,67 58,44 -8,-33 -22,19 -27,-27 -3,-34 3,-32 -21,-48 8,-11 37,-41 -3,-65 -19,-12 -65,-7 -96,-7l0 7z"/>
     <path class="fil5" d="M2536 2373c5,6 -2,7 21,7l0 127 -21 0 0 13 72 0 0 -13 -20 0 0 -62 27 0c-10,-9 -17,-7 -31,-7 16,-6 18,-1 21,-6 0,-1 2,0 3,-1l-20 0 0 -51 23 0c-12,-12 -22,-4 -38,-3 -17,0 -19,-4 -37,-4z"/>
     <path class="fil6" d="M2814 2507l12 1 -2 -12c5,-16 0,-88 0,-116l24 0 0 -14 -75 0 0 14 20 0c0,25 0,50 0,75 0,11 3,37 9,46 9,14 4,7 12,6z"/>
     <path class="fil3" d="M3920 2510c4,1 6,1 7,2 5,-8 8,-3 4,-13l-4 -119c18,0 16,3 24,-7 -9,-12 -47,-7 -75,-7l0 14 24 0 0 65c0,35 -3,41 10,65 8,2 5,0 10,0z"/>
     <path class="fil1" d="M2252 1742l3 66 45 0c0,-20 3,-24 3,-45 0,-19 -3,-20 -3,-38l-45 0c-2,8 -3,8 -3,17z"/>
     <path class="fil1" d="M2951 1794c0,8 -8,14 7,14l37 0 0 -83 -44 0 0 69z"/>
     <path class="fil7" d="M2824 2496l2 12 -12 -1c0,0 1,7 3,10 23,2 63,16 81,-22 11,-22 5,-84 5,-115l24 0 0 -14 -59 0 0 14 21 0c0,24 3,82 0,102 -3,15 -25,43 -63,16 0,0 -1,-1 -2,-2z"/>
     <path class="fil7" d="M3931 2499c4,10 1,5 -4,13 -1,-1 -3,-1 -7,-2 10,14 34,13 51,9 51,-9 35,-82 35,-139 18,0 16,3 24,-7 -9,-12 -25,-7 -58,-7l0 14 20 0c0,72 15,118 -26,128 -21,5 -24,-4 -35,-9z"/>
    </g>
   </g>
  </g>
  <polygon class="fil8" points="0,0 5475,0 5475,2606 0,2606 "/>
 </g>
</svg>
